<svg xmlns="http://www.w3.org/2000/svg"  viewBox="0 0 48 48" width="48px" height="48px" clip-rule="evenodd" baseProfile="basic"><path d="M42.924,16.01c-0.1-0.358-0.294-0.685-0.563-0.948c-0.135-0.131-0.288-0.247-0.458-0.342	c-3.356-1.883-13.452-7.551-16.807-9.434c-0.678-0.381-1.514-0.381-2.193,0C19.549,7.169,9.451,12.837,6.097,14.72	c-0.509,0.286-0.872,0.753-1.021,1.291C5.026,16.19,5,16.376,5,16.567v0c0,3.766,0,15.101,0,18.867c0,0.762,0.418,1.465,1.096,1.846	c1.258,0.706,3.465,1.945,5.908,3.316c2.85,1.6,6.023,3.381,8.39,4.71c1.014,0.569,1.88,1.055,2.509,1.409	c0.169,0.095,0.349,0.167,0.533,0.214C23.621,46.976,23.81,47,23.999,47s0.379-0.024,0.563-0.071	c0.184-0.048,0.364-0.119,0.534-0.214c3.356-1.883,13.452-7.551,16.807-9.434C42.582,36.899,43,36.195,43,35.433	c0-3.766,0-15.101,0-18.867C43,16.375,42.974,16.189,42.924,16.01z"/><path fill="#fff" fill-rule="evenodd" d="M22.954,4.24c0.648-0.363,1.445-0.363,2.092,0	c3.2,1.796,12.832,7.203,16.033,9c0.648,0.362,1.046,1.034,1.046,1.761c0,3.593,0,14.406,0,17.998c0,0.727-0.399,1.398-1.046,1.762	c-3.2,1.796-12.832,7.203-16.033,9c-0.648,0.363-1.445,0.363-2.092,0c-3.2-1.796-12.832-7.203-16.033-9	C6.274,34.397,5.875,33.726,5.875,33c0-3.593,0-14.406,0-17.998c0-0.727,0.399-1.398,1.046-1.762	C10.121,11.443,19.754,6.036,22.954,4.24z" clip-rule="evenodd"/><path d="M24,5c0.029,0,0.073,0.005,0.117,0.03l5.847,3.282l10.962,6.153C40.972,14.491,41,14.529,41,14.566v18.867	c0,0.037-0.029,0.077-0.076,0.103l-6.288,3.53L24.117,42.97C24.073,42.995,24.029,43,23.999,43c-0.029,0-0.073-0.005-0.117-0.03	l-6.092-3.42L7.076,33.536C7.029,33.51,7,33.471,7,33.434V14.567c0-0.037,0.029-0.077,0.076-0.103l8.235-4.623l8.571-4.811	C23.926,5.005,23.97,5,24,5 M24,3c-0.379,0-0.757,0.095-1.097,0.286C19.549,5.169,9.451,10.837,6.097,12.72	C5.418,13.101,5,13.805,5,14.567c0,3.766,0,15.101,0,18.867c0,0.762,0.418,1.465,1.096,1.846c3.356,1.883,13.452,7.551,16.807,9.434	C23.242,44.904,23.62,45,23.999,45s0.757-0.095,1.097-0.286c3.356-1.883,13.452-7.551,16.807-9.434	C42.582,34.899,43,34.195,43,33.433c0-3.766,0-15.101,0-18.867c0-0.762-0.418-1.466-1.097-1.846	c-3.356-1.883-13.452-7.551-16.807-9.434C24.757,3.096,24.379,3,24,3L24,3z"/><rect width="2" height="6" x="28" y="21" fill-rule="evenodd" clip-rule="evenodd"/><rect width="2" height="6" x="35" y="21" fill-rule="evenodd" clip-rule="evenodd"/><rect width="6" height="2" x="26" y="23" fill-rule="evenodd" clip-rule="evenodd"/><rect width="6" height="2" x="33" y="23" fill-rule="evenodd" clip-rule="evenodd"/><path d="M22,37c-7.168,0-13-5.832-13-13s5.832-13,13-13c3.816,0,7.43,1.679,9.912,4.607c0.192,0.227,0.273,0.527,0.223,0.82	c-0.052,0.293-0.231,0.547-0.489,0.695l-3.56,2.034c-0.389,0.222-0.877,0.159-1.195-0.153C25.571,17.711,23.834,17,22,17	c-3.859,0-7,3.14-7,7s3.141,7,7,7c1.897,0,3.677-0.754,5.009-2.123c0.314-0.322,0.806-0.394,1.199-0.178l3.59,1.975	c0.259,0.143,0.442,0.394,0.499,0.684c0.057,0.291-0.019,0.592-0.205,0.822C29.604,35.243,25.926,37,22,37z M22,13	c-6.065,0-11,4.935-11,11s4.935,11,11,11c2.917,0,5.672-1.147,7.727-3.183l-1.845-1.015C26.245,32.225,24.185,33,22,33	c-4.963,0-9-4.038-9-9s4.037-9,9-9c2.105,0,4.109,0.727,5.721,2.061l1.829-1.045C27.513,14.086,24.822,13,22,13z"/></svg>