<?xml version="1.0" encoding="UTF-8" standalone="no"?>
<svg
   xmlns:dc="http://purl.org/dc/elements/1.1/"
   xmlns:cc="http://creativecommons.org/ns#"
   xmlns:rdf="http://www.w3.org/1999/02/22-rdf-syntax-ns#"
   xmlns:svg="http://www.w3.org/2000/svg"
   xmlns="http://www.w3.org/2000/svg"
   xmlns:sodipodi="http://sodipodi.sourceforge.net/DTD/sodipodi-0.dtd"
   xmlns:inkscape="http://www.inkscape.org/namespaces/inkscape"
   sodipodi:docname="1 - Coding.svg"
   inkscape:version="1.0 (4035a4fb49, 2020-05-01)"
   id="svg831"
   version="1.1"
   viewBox="0 0 22.577778 22.577778"
   height="64pt"
   width="64pt">
  <defs
     id="defs825">
    <pattern
       y="0"
       x="0"
       height="6"
       width="6"
       patternUnits="userSpaceOnUse"
       id="EMFhbasepattern" />
    <pattern
       y="0"
       x="0"
       height="6"
       width="6"
       patternUnits="userSpaceOnUse"
       id="EMFhbasepattern-9" />
    <pattern
       y="0"
       x="0"
       height="6"
       width="6"
       patternUnits="userSpaceOnUse"
       id="EMFhbasepattern-0" />
    <pattern
       y="0"
       x="0"
       height="6"
       width="6"
       patternUnits="userSpaceOnUse"
       id="EMFhbasepattern-7" />
    <pattern
       y="0"
       x="0"
       height="6"
       width="6"
       patternUnits="userSpaceOnUse"
       id="EMFhbasepattern-2" />
    <pattern
       y="0"
       x="0"
       height="6"
       width="6"
       patternUnits="userSpaceOnUse"
       id="EMFhbasepattern-98" />
    <pattern
       y="0"
       x="0"
       height="6"
       width="6"
       patternUnits="userSpaceOnUse"
       id="EMFhbasepattern-6" />
    <pattern
       y="0"
       x="0"
       height="6"
       width="6"
       patternUnits="userSpaceOnUse"
       id="EMFhbasepattern-01" />
    <pattern
       y="0"
       x="0"
       height="6"
       width="6"
       patternUnits="userSpaceOnUse"
       id="EMFhbasepattern-07" />
    <pattern
       y="0"
       x="0"
       height="6"
       width="6"
       patternUnits="userSpaceOnUse"
       id="EMFhbasepattern-8" />
    <pattern
       y="0"
       x="0"
       height="6"
       width="6"
       patternUnits="userSpaceOnUse"
       id="EMFhbasepattern-4" />
    <pattern
       y="0"
       x="0"
       height="6"
       width="6"
       patternUnits="userSpaceOnUse"
       id="EMFhbasepattern-40" />
    <pattern
       y="0"
       x="0"
       height="6"
       width="6"
       patternUnits="userSpaceOnUse"
       id="EMFhbasepattern-08" />
    <pattern
       y="0"
       x="0"
       height="6"
       width="6"
       patternUnits="userSpaceOnUse"
       id="EMFhbasepattern-04" />
    <pattern
       y="0"
       x="0"
       height="6"
       width="6"
       patternUnits="userSpaceOnUse"
       id="EMFhbasepattern-014" />
    <pattern
       y="0"
       x="0"
       height="6"
       width="6"
       patternUnits="userSpaceOnUse"
       id="EMFhbasepattern-27" />
    <pattern
       y="0"
       x="0"
       height="6"
       width="6"
       patternUnits="userSpaceOnUse"
       id="EMFhbasepattern-09" />
    <pattern
       y="0"
       x="0"
       height="6"
       width="6"
       patternUnits="userSpaceOnUse"
       id="EMFhbasepattern-5" />
    <pattern
       y="0"
       x="0"
       height="6"
       width="6"
       patternUnits="userSpaceOnUse"
       id="EMFhbasepattern-018" />
  </defs>
  <sodipodi:namedview
     inkscape:document-rotation="0"
     inkscape:snap-global="true"
     inkscape:snap-nodes="false"
     inkscape:bbox-nodes="true"
     inkscape:snap-bbox="true"
     showguides="true"
     inkscape:snap-midpoints="true"
     inkscape:snap-smooth-nodes="true"
     inkscape:snap-intersection-paths="true"
     inkscape:object-paths="true"
     inkscape:showpageshadow="false"
     inkscape:pagecheckerboard="true"
     inkscape:window-maximized="1"
     inkscape:window-y="-8"
     inkscape:window-x="-8"
     inkscape:window-height="706"
     inkscape:window-width="1366"
     units="pt"
     showgrid="false"
     inkscape:current-layer="layer1"
     inkscape:document-units="pt"
     inkscape:cy="42.666667"
     inkscape:cx="42.666667"
     inkscape:zoom="6.2578125"
     inkscape:pageshadow="2"
     inkscape:pageopacity="0.0"
     borderopacity="1.0"
     bordercolor="#666666"
     pagecolor="#ffffff"
     id="base">
    <inkscape:grid
       id="grid1378"
       type="xygrid" />
    <sodipodi:guide
       inkscape:locked="false"
       id="guide1380"
       orientation="78.000048,0"
       position="0.97013831,21.607643" />
    <sodipodi:guide
       inkscape:locked="false"
       id="guide1382"
       orientation="0,78.000005"
       position="0.97013831,0.97013129" />
    <sodipodi:guide
       inkscape:locked="false"
       id="guide1384"
       orientation="-78.000048,0"
       position="21.607639,0.97013129" />
    <sodipodi:guide
       inkscape:locked="false"
       id="guide1386"
       orientation="0,-78.000005"
       position="21.607639,21.607643" />
  </sodipodi:namedview>
  <metadata
     id="metadata828">
    <rdf:RDF>
      <cc:Work
         rdf:about="">
        <dc:format>image/svg+xml</dc:format>
        <dc:type
           rdf:resource="http://purl.org/dc/dcmitype/StillImage" />
        <dc:title></dc:title>
      </cc:Work>
    </rdf:RDF>
  </metadata>
  <g
     transform="translate(0,-274.42223)"
     id="layer1"
     inkscape:groupmode="layer"
     inkscape:label="Icon">
    <path
       d="m 2.0318895,277.3894 c -0.3178942,0 -0.5995926,0.16889 -0.7815226,0.40506 -0.1819268,0.23619 -0.28022709,0.5442 -0.28022709,0.87516 v 10.08956 c 0,0.33095 0.0983006,0.63637 0.28022709,0.87255 0.18193,0.23618 0.4636284,0.4083 0.7815226,0.4083 h 7.2098913 l -0.2392677,1.66318 H 6.9615847 c -0.529495,0 -1.0227412,0.27872 -1.2951653,0.73276 l -0.3120883,0.5234 c -0.077684,0.12947 -0.1010334,0.27065 -0.089076,0.40766 h -0.633278 a 0.3328945,0.3328945 0 0 0 -0.3341959,0.33419 0.3328945,0.3328945 0 0 0 0.3341959,0.33159 H 17.945798 a 0.3328945,0.3328945 0 0 0 0.334192,-0.33159 0.3328945,0.3328945 0 0 0 -0.334192,-0.33419 h -0.633281 c 0.01195,-0.13702 -0.01132,-0.27818 -0.08907,-0.40766 l -0.312089,-0.5234 c -0.272424,-0.45404 -0.76567,-0.73276 -1.295168,-0.73276 h -2.040928 l -0.238619,-1.66318 h 7.209245 c 0.317894,0 0.599593,-0.17212 0.78152,-0.4083 0.181929,-0.23618 0.28023,-0.5416 0.28023,-0.87255 v -10.08956 c 0,-0.33096 -0.0983,-0.63897 -0.28023,-0.87516 -0.181927,-0.23617 -0.463626,-0.40506 -0.78152,-0.40506 z m 0,0.6658 H 20.545886 c 0.08595,0 0.171331,0.0416 0.252919,0.14758 0.08159,0.10594 0.144993,0.2735 0.144993,0.46684 v 9.03821 H 1.6339776 v -9.03821 c 0,-0.19334 0.063404,-0.36091 0.1449921,-0.46684 0.081592,-0.10594 0.1669698,-0.14758 0.2529198,-0.14758 z m 1.0396456,0.66578 c -0.1915308,0 -0.3710175,0.0521 -0.5188491,0.15995 -0.1478283,0.10795 -0.2698242,0.29126 -0.2698242,0.50584 v 5.65985 c 0,0.21458 0.121996,0.39533 0.2698242,0.50325 0.1478316,0.10795 0.3273183,0.16254 0.5188491,0.16254 H 19.489336 c 0.191531,0 0.370365,-0.0546 0.518197,-0.16254 0.147828,-0.10796 0.270476,-0.28867 0.270476,-0.50325 v -5.65985 c 0,-0.21458 -0.122648,-0.39791 -0.270476,-0.50584 -0.147832,-0.10795 -0.326666,-0.15995 -0.518197,-0.15995 z m 0,0.66579 H 19.489336 c 0.05997,0 0.105058,0.02 0.122887,0.0325 v 5.59289 c -0.0178,0.0126 -0.0629,0.0345 -0.122887,0.0345 H 3.0715351 c -0.059978,0 -0.1050583,-0.022 -0.1228842,-0.0345 v -5.5929 c 0.017844,-0.0126 0.062907,-0.0325 0.1228842,-0.0325 z m 1.5500391,0.66579 a 0.3328945,0.3328945 0 0 0 -0.018841,6.7e-4 0.3328945,0.3328945 0 0 0 -0.2236651,0.0956 l -0.6664378,0.66579 a 0.33292779,0.33292779 0 0 0 0,0.47204 l 0.6664378,0.66578 a 0.3328945,0.3328945 0 0 0 0.4694342,0 0.3328945,0.3328945 0 0 0 0,-0.47138 l -0.4304224,-0.43043 0.4304224,-0.42977 a 0.3328945,0.3328945 0 0 0 0,-0.47203 0.3328945,0.3328945 0 0 0 -0.226914,-0.0962 z m 3.3302412,0 a 0.3328945,0.3328945 0 0 0 -0.019508,6.7e-4 0.3328945,0.3328945 0 0 0 -0.226265,0.0956 0.3328945,0.3328945 0 0 0 0,0.47203 l 0.4304224,0.42977 -0.4304224,0.43043 a 0.3328945,0.3328945 0 0 0 0,0.47138 0.3328945,0.3328945 0 0 0 0.4720341,0 l 0.6657887,-0.66578 a 0.33292779,0.33292779 0 0 0 0,-0.47204 l -0.6657889,-0.66577 a 0.3328945,0.3328945 0 0 0 -0.2262648,-0.0962 z m -1.3491308,6.7e-4 a 0.3328945,0.3328945 0 0 0 -0.2899807,0.184 l -0.6657887,1.32962 a 0.3328945,0.3328945 0 0 0 0.1495395,0.44733 0.3328945,0.3328945 0 0 0 0.4473266,-0.14759 l 0.6664412,-1.33223 a 0.3328945,0.3328945 0 0 0 -0.150192,-0.44668 0.3328945,0.3328945 0 0 0 -0.1573459,-0.0345 z m 9.6799414,0 c -0.363082,0 -0.666438,0.30269 -0.666438,0.66578 v 2.99539 c 0,0.36309 0.30334,0.6658 0.666438,0.6658 h 1.997364 c 0.363098,0 0.666442,-0.30271 0.666442,-0.6658 v -2.99539 c 0,-0.36309 -0.303356,-0.66578 -0.666442,-0.66578 z m 0,0.66578 h 1.997364 v 2.99539 h -1.997364 z m -6.3425461,0.33159 a 0.3328945,0.3328945 0 0 0 -0.3315927,0.3342 0.3328945,0.3328945 0 0 0 0.3315927,0.3316 h 0.3315931 a 0.3328945,0.3328945 0 0 0 0.334196,-0.3316 0.3328945,0.3328945 0 0 0 -0.334196,-0.3342 z m 1.6631701,0 a 0.3328945,0.3328945 0 0 0 -0.331592,0.3342 0.3328945,0.3328945 0 0 0 0.331592,0.3316 h 2.998652 a 0.3328945,0.3328945 0 0 0 0.331593,-0.3316 0.3328945,0.3328945 0 0 0 -0.331593,-0.3342 z m -1.007135,1.33223 a 0.3328945,0.3328945 0 0 0 -0.226261,0.0981 l -0.6657896,0.66579 a 0.33292779,0.33292779 0 0 0 0,0.46943 l 0.6657896,0.66579 a 0.3328945,0.3328945 0 0 0 0.47203,0 0.3328945,0.3328945 0 0 0 0,-0.47203 l -0.430419,-0.42977 0.430419,-0.42977 a 0.3328945,0.3328945 0 0 0 0,-0.46944 0.3328945,0.3328945 0 0 0 -0.245769,-0.0981 z m 1.998018,0 a 0.3328945,0.3328945 0 0 0 -0.288033,0.18401 l -0.665789,1.33223 a 0.3328945,0.3328945 0 0 0 0.147592,0.44471 0.3328945,0.3328945 0 0 0 0.447327,-0.14758 l 0.665788,-1.33223 a 0.3328945,0.3328945 0 0 0 -0.149543,-0.44668 0.3328945,0.3328945 0 0 0 -0.157342,-0.0345 z m 1.328974,0 a 0.3328945,0.3328945 0 0 0 -0.223662,0.0981 0.3328945,0.3328945 0 0 0 0,0.46944 l 0.430423,0.42977 -0.430423,0.42977 a 0.3328945,0.3328945 0 0 0 0,0.47203 0.3328945,0.3328945 0 0 0 0.469432,0 l 0.666441,-0.66579 a 0.33292779,0.33292779 0 0 0 0,-0.46943 l -0.666441,-0.66579 a 0.3328945,0.3328945 0 0 0 -0.24577,-0.0981 z m -9.9744754,0.99739 a 0.3328945,0.3328945 0 0 0 -0.3341926,0.33418 0.3328945,0.3328945 0 0 0 0.3341926,0.3316 h 2.9960487 a 0.3328945,0.3328945 0 0 0 0.331596,-0.3316 0.3328945,0.3328945 0 0 0 -0.331596,-0.33418 z m 4.3276259,0 a 0.3328945,0.3328945 0 0 0 -0.3341926,0.33418 0.3328945,0.3328945 0 0 0 0.3341926,0.3316 h 0.331596 a 0.3328945,0.3328945 0 0 0 0.3341925,-0.3316 0.3328945,0.3328945 0 0 0 -0.3341925,-0.33418 z m 1.1820344,2.998 a 0.3328945,0.3328945 0 0 0 -0.3341925,0.33159 0.3328945,0.3328945 0 0 0 0.3341925,0.33224 h 0.331596 a 0.3328945,0.3328945 0 0 0 0.3341931,-0.33224 0.3328945,0.3328945 0 0 0 -0.3341931,-0.33159 z m 1.6638231,0 a 0.3328945,0.3328945 0 0 0 -0.332245,0.33159 0.3328945,0.3328945 0 0 0 0.332245,0.33224 h 0.334196 a 0.3328945,0.3328945 0 0 0 0.331592,-0.33224 0.3328945,0.3328945 0 0 0 -0.331592,-0.33159 z m 1.665772,0 a 0.3328945,0.3328945 0 0 0 -0.334195,0.33159 0.3328945,0.3328945 0 0 0 0.334195,0.33224 h 0.331593 a 0.3328945,0.3328945 0 0 0 0.334196,-0.33224 0.3328945,0.3328945 0 0 0 -0.334196,-0.33159 z M 1.6339776,288.37363 H 20.943798 v 0.38556 c 0,0.19333 -0.06341,0.36155 -0.144993,0.46748 -0.08159,0.10594 -0.16697,0.14694 -0.252919,0.14694 H 2.0318895 c -0.085946,0 -0.1713308,-0.041 -0.2529198,-0.14694 -0.081596,-0.10594 -0.1449921,-0.27415 -0.1449921,-0.46748 z m 8.2787949,1.66642 h 2.7522305 l 0.238616,1.66318 H 9.674803 Z m -2.9511878,2.32961 h 8.6546033 c 0.296611,0 0.570397,0.15332 0.723006,0.40766 l 0.314038,0.52341 c 0.0262,0.0437 0.01183,0.0663 -0.03902,0.0663 H 5.9635542 c -0.050906,0 -0.065208,-0.0226 -0.039012,-0.0663 l 0.3146883,-0.52341 c 0.1526087,-0.25434 0.4257452,-0.40766 0.7223542,-0.40766 z m -3.9960299,0.99739 a 0.3328945,0.3328945 0 0 0 -0.3315959,0.33418 0.3328945,0.3328945 0 0 0 0.3315959,0.3316 h 0.3341926 a 0.3328945,0.3328945 0 0 0 0.3322452,-0.3316 0.3328945,0.3328945 0 0 0 -0.3322452,-0.33418 z m 16.3124702,0 a 0.3328945,0.3328945 0 0 0 -0.331593,0.33418 0.3328945,0.3328945 0 0 0 0.331593,0.3316 h 0.334195 a 0.3328945,0.3328945 0 0 0 0.331593,-0.3316 0.3328945,0.3328945 0 0 0 -0.331593,-0.33418 z"
       style="color:#000000;font-style:normal;font-variant:normal;font-weight:normal;font-stretch:normal;font-size:medium;line-height:normal;font-family:sans-serif;font-variant-ligatures:normal;font-variant-position:normal;font-variant-caps:normal;font-variant-numeric:normal;font-variant-alternates:normal;font-variant-east-asian:normal;font-feature-settings:normal;font-variation-settings:normal;text-indent:0;text-align:start;text-decoration:none;text-decoration-line:none;text-decoration-style:solid;text-decoration-color:#000000;letter-spacing:normal;word-spacing:normal;text-transform:none;writing-mode:lr-tb;direction:ltr;text-orientation:mixed;dominant-baseline:auto;baseline-shift:baseline;text-anchor:start;white-space:normal;shape-padding:0;shape-margin:0;inline-size:0;clip-rule:nonzero;display:inline;overflow:visible;visibility:visible;opacity:1;isolation:auto;mix-blend-mode:normal;color-interpolation:sRGB;color-interpolation-filters:linearRGB;solid-color:#000000;solid-opacity:1;vector-effect:none;fill:#000000;fill-opacity:1;fill-rule:nonzero;stroke:none;stroke-width:0.529167;stroke-linecap:round;stroke-linejoin:round;stroke-miterlimit:4;stroke-dasharray:none;stroke-dashoffset:0;stroke-opacity:1;color-rendering:auto;image-rendering:auto;shape-rendering:auto;text-rendering:auto;enable-background:accumulate;stop-color:#000000;stop-opacity:1"
       id="path1136" />
  </g>
</svg>
